<svg width="100%" fill="none" viewBox="0 0 430 463"><path d="M1091.65 397.04c-44.74 45.263-120.47 54.348-180.192 21.723-47.179-25.77-82.563-73.428-131.52-94.737-71.423-30.974-147.245 2.725-212.022 36.755-64.777 34.029-139.102 69.463-211.461 41.546-28.363-10.986-53.169-30.809-79.941-45.841-26.772-15.115-58.505-25.605-85.464-15.776-28.457 10.407-43.996 40.142-63.935 63.021-38.098 43.941-98.756 65.581-158.197 56.413-59.442-9.169-116.262-48.897-148.089-103.658" stroke="#000" stroke-opacity="0.16" stroke-miterlimit="10"></path><path d="M1089.59 380.356c-36.04 37.994-93.511 51.87-146.119 37.994a161.807 161.807 0 01-32.107-12.224c-30.423-15.611-56.446-40.389-84.06-61.864-15.352-12.059-31.265-22.962-48.957-30.561a160.894 160.894 0 00-14.041-5.203c-26.211-8.26-52.889-8.508-79.099-3.469-27.427 5.286-54.48 16.023-80.503 28.165-13.012 6.029-25.743 12.472-38.192 18.749-44.09 22.466-92.766 44.684-141.91 48.732-23.59 1.899-47.085-.083-70.3-8.343-28.176-9.994-52.795-28.247-79.193-41.958-5.803-2.974-11.701-5.782-17.879-8.177-21.81-8.673-45.493-12.637-66.462-4.626-28.363 10.82-44.37 40.142-64.683 62.608-2.714 2.973-5.523 5.947-8.518 8.672-38.847 37.086-95.387 54.183-150.803 45.511-5.429-.826-10.858-1.9-16.194-3.304-53.637-13.215-103.437-50.383-132.83-99.941" stroke="#000" stroke-opacity="0.16" stroke-miterlimit="10"></path><path d="M1087.53 363.589c-35.1 38.572-91.638 53.522-144.059 41.133-10.952-2.561-21.717-6.36-32.107-11.316-30.704-14.702-57.195-38.655-85.09-59.882-15.539-11.894-31.546-22.796-49.238-30.313a161.099 161.099 0 00-14.041-5.203c-26.398-8.26-53.076-8.507-79.193-2.973-27.333 5.699-53.918 16.932-80.035 29.156-13.011 6.112-25.835 12.472-38.379 18.584-44.37 21.97-93.327 42.619-142.659 46.501-23.776 1.9-47.272.248-70.299-7.268-28.083-9.003-52.421-25.687-78.35-37.994-5.71-2.726-11.514-5.204-17.599-7.351-21.436-7.682-44.744-10.903-65.525-2.643-28.176 11.233-44.745 40.141-65.432 62.194-2.809 2.974-5.71 5.782-8.612 8.508-39.503 36.177-96.136 52.283-151.74 43.528-5.428-.826-10.858-1.983-16.287-3.304-53.825-13.216-103.905-50.053-133.859-99.528" stroke="#000" stroke-opacity="0.16" stroke-miterlimit="10"></path><path d="M1085.38 346.904c-34.07 39.151-89.768 55.174-141.908 44.272-10.952-2.313-21.717-5.699-32.201-10.407-30.891-13.794-57.944-36.921-86.213-57.9-15.727-11.729-31.827-22.549-49.613-30.065a151.945 151.945 0 00-14.134-5.203c-26.492-8.26-53.264-8.425-79.193-2.478-27.146 6.112-53.45 17.84-79.567 30.23-13.105 6.194-25.929 12.472-38.566 18.419-44.745 21.392-93.983 40.554-143.408 44.271-23.964 1.817-47.459.496-70.3-6.195-27.895-8.094-51.952-23.209-77.601-34.112-5.616-2.395-11.326-4.625-17.224-6.442-21.062-6.691-43.996-9.086-64.683-.578-28.082 11.728-45.025 40.141-66.181 61.699-2.808 2.89-5.804 5.699-8.799 8.342-40.158 35.351-96.885 50.466-152.581 41.628-5.43-.909-10.953-1.982-16.288-3.304-54.106-13.133-104.373-49.805-134.796-99.197" stroke="#000" stroke-opacity="0.16" stroke-miterlimit="10"></path><path d="M1083.32 330.22c-33.14 39.729-87.896 56.826-139.848 47.327a157.618 157.618 0 01-32.295-9.498c-31.078-12.968-58.692-35.186-87.336-55.917-15.82-11.564-32.108-22.301-49.987-29.9a163.003 163.003 0 00-14.135-5.204c-26.585-8.259-53.45-8.342-79.286-1.899-27.053 6.607-52.982 18.832-79.099 31.221-13.105 6.277-26.023 12.389-38.754 18.254-45.025 20.896-94.637 38.489-144.156 42.123-24.151 1.735-47.553.826-70.393-5.038-27.708-7.103-51.579-20.649-76.759-30.147-5.523-2.065-11.139-3.965-16.943-5.534-20.688-5.617-43.341-7.434-63.841 1.404-27.989 12.059-45.4 40.141-66.93 61.286a197.997 197.997 0 01-8.986 8.177c-40.907 34.36-97.727 48.566-153.517 39.646-5.523-.909-10.952-1.983-16.382-3.304-54.292-13.05-104.841-49.475-135.731-98.785" stroke="#000" stroke-opacity="0.16" stroke-miterlimit="10"></path><path d="M1081.26 313.453c-32.2 40.307-86.023 58.561-137.788 50.466-10.953-1.734-21.811-4.542-32.295-8.59-31.265-12.059-59.441-33.451-88.366-53.935-16.007-11.398-32.389-22.135-50.268-29.652a153.965 153.965 0 00-14.228-5.203c-26.679-8.26-53.638-8.177-79.38-1.404-26.865 7.103-52.514 19.74-78.537 32.212-13.105 6.36-26.117 12.389-38.941 18.171-45.306 20.319-95.293 36.425-144.905 39.894-24.245 1.652-47.741 1.074-70.394-3.965-27.521-6.194-51.203-18.088-76.01-26.183-5.429-1.734-10.952-3.386-16.662-4.625-20.313-4.625-42.592-5.616-62.904 3.469-27.896 12.472-45.681 40.224-67.679 60.873-2.996 2.808-5.991 5.452-9.174 7.929-41.562 33.534-98.475 46.75-154.453 37.664-5.523-.908-10.952-1.982-16.382-3.304-54.479-13.05-105.309-49.227-136.761-98.371" stroke="#000" stroke-opacity="0.16" stroke-miterlimit="10"></path><path d="M1079.2 296.77c-31.17 40.885-84.244 60.212-135.635 53.604-10.859-1.404-21.811-3.882-32.388-7.681-31.453-11.151-60.19-31.717-89.49-51.953-16.1-11.233-32.669-21.888-50.642-29.404-4.774-1.982-9.454-3.717-14.228-5.121-26.772-8.259-53.731-8.094-79.474-.908-26.678 7.516-52.046 20.648-78.069 33.286-13.198 6.36-26.21 12.389-39.128 18.005-45.587 19.741-95.948 34.36-145.654 37.664-24.432 1.569-47.927 1.404-70.393-2.891-27.428-5.203-50.83-15.61-75.261-22.301-5.336-1.486-10.765-2.808-16.382-3.799-19.938-3.634-41.936-3.882-62.062 5.451-27.708 12.885-46.055 40.225-68.521 60.378-2.996 2.726-6.178 5.286-9.361 7.764-42.124 32.625-99.318 44.849-155.296 35.681a231.94 231.94 0 01-16.475-3.304c-54.761-12.967-105.777-48.896-137.697-97.958" stroke="#000" stroke-opacity="0.16" stroke-miterlimit="10"></path><path d="M1077.14 280.085c-30.23 41.38-82.371 61.946-133.574 56.66a159.589 159.589 0 01-32.482-6.69c-31.733-10.242-60.939-29.982-90.613-49.97-16.288-11.068-32.856-21.723-51.016-29.157-4.774-1.982-9.548-3.717-14.322-5.121-26.96-8.259-53.919-8.011-79.567-.33-26.585 7.929-51.578 21.64-77.601 34.277a752.256 752.256 0 01-39.316 17.841c-45.868 19.245-96.51 32.212-146.403 35.433-24.619 1.487-48.021 1.735-70.393-1.817-27.24-4.295-50.455-13.05-74.419-18.336-5.242-1.156-10.577-2.147-16.1-2.891-19.471-2.56-41.188-2.147-61.22 7.516-27.614 13.298-46.336 40.225-69.27 59.965-3.089 2.643-6.272 5.203-9.548 7.599-42.779 31.717-100.067 43.032-156.232 33.699-5.523-.909-11.046-1.982-16.475-3.304-54.948-12.968-106.245-48.649-138.727-97.546" stroke="#000" stroke-opacity="0.16" stroke-miterlimit="10"></path><path d="M1075.08 263.318c-29.29 41.959-80.592 63.599-131.514 59.799-10.859-.826-21.811-2.643-32.482-5.781-31.921-9.334-61.688-28.248-91.643-47.988-16.475-10.82-33.137-21.475-51.297-28.909-4.774-1.982-9.548-3.634-14.322-5.121-27.053-8.177-54.106-7.929-79.661.165-26.397 8.425-51.11 22.549-77.133 35.351a571.334 571.334 0 01-39.502 17.676c-46.149 18.666-97.166 30.147-147.152 33.203-24.807 1.487-48.209 1.983-70.394-.743-27.146-3.304-49.986-10.572-73.669-14.372-5.149-.826-10.391-1.569-15.82-1.982-19.096-1.569-40.439-.413-60.284 9.499-27.427 13.71-46.71 40.224-70.019 59.551-3.182 2.561-6.365 5.038-9.735 7.434-43.434 30.89-100.816 41.132-157.074 31.716-5.523-.908-11.046-2.064-16.569-3.303-55.135-12.885-106.713-48.402-139.663-97.216" stroke="#000" stroke-opacity="0.16" stroke-miterlimit="10"></path><path d="M1073.03 246.633c-28.27 42.537-78.729 65.334-129.371 62.938-10.859-.495-21.811-2.064-32.576-4.873-32.107-8.425-62.436-26.513-92.765-46.006-16.663-10.654-33.418-21.227-51.672-28.66-4.774-1.983-9.548-3.635-14.416-5.121-27.146-8.177-54.292-7.847-79.66.661-26.21 8.837-50.642 23.457-76.572 36.342a474.804 474.804 0 01-39.689 17.51c-46.43 18.171-97.821 28.082-147.901 30.973-24.994 1.404-48.396 2.313-70.394.331-26.959-2.396-49.612-8.012-72.827-10.49-5.054-.495-10.203-.991-15.445-1.156-18.722-.578-39.783 1.404-59.441 11.563-27.334 14.124-47.085 40.224-70.768 59.056a130.949 130.949 0 01-9.829 7.186c-44.09 29.982-101.658 39.316-158.01 29.817-5.523-.909-11.046-2.065-16.569-3.304-55.416-12.885-107.181-48.071-140.599-96.802" stroke="#000" stroke-opacity="0.16" stroke-miterlimit="10"></path><path d="M1070.97 229.949c-27.34 43.115-76.95 66.985-127.311 65.994-10.859-.248-21.811-1.487-32.669-3.965-32.389-7.516-63.186-24.778-93.796-44.023-16.756-10.49-33.699-21.062-52.046-28.413a200.527 200.527 0 00-14.416-5.121c-27.24-8.177-54.479-7.764-79.754 1.239-26.116 9.333-50.174 24.448-76.103 37.416-13.292 6.69-26.678 12.389-39.877 17.345-46.711 17.593-98.476 26.017-148.65 28.826-25.18 1.321-48.582 2.643-70.393 1.486-26.772-1.404-49.144-5.451-72.078-6.525a230.311 230.311 0 00-15.165-.247c-18.347.413-39.034 3.138-58.599 13.545-27.24 14.537-47.365 40.307-71.516 58.643-3.276 2.478-6.646 4.791-10.016 7.021-44.745 29.074-102.408 37.416-158.947 27.835-5.523-.909-11.14-2.065-16.662-3.304-55.603-12.802-107.556-47.823-141.629-96.389" stroke="#000" stroke-opacity="0.16" stroke-miterlimit="10"></path><path d="M1068.81 213.265c-26.39 43.693-75.071 67.563-125.245 69.132-10.859.331-21.811-.826-32.669-3.056-32.576-6.608-63.935-23.044-94.919-42.041-16.943-10.325-33.98-20.814-52.327-28.248a187.781 187.781 0 00-14.509-5.121c-27.334-8.177-54.667-7.681-79.848 1.735-25.929 9.746-49.706 25.357-75.635 38.407-13.293 6.69-26.772 12.389-40.065 17.18-46.991 17.014-99.13 23.952-149.398 26.596-25.368 1.238-48.676 2.89-70.487 2.56-26.678-.496-48.77-2.973-71.329-2.56-4.868.082-9.829.247-14.884.66-17.879 1.404-38.286 4.873-57.663 15.611-27.052 14.95-47.74 40.307-72.265 58.23a162.45 162.45 0 01-10.203 6.855c-45.4 28.248-103.156 35.599-159.79 25.853-5.616-.991-11.139-2.065-16.662-3.304-55.79-12.72-108.023-47.493-142.565-95.976" stroke="#000" stroke-opacity="0.16" stroke-miterlimit="10"></path><path d="M1066.75 196.498c-25.36 44.272-73.291 70.454-123.184 72.272-10.859.413-21.811-.248-32.763-2.148-32.763-5.699-64.683-21.31-96.042-40.059-17.037-10.242-34.261-20.649-52.702-28-4.867-1.9-9.641-3.634-14.509-5.038-27.521-8.177-54.854-7.599-79.941 2.313-25.742 10.159-49.144 26.265-75.167 39.48-13.293 6.773-26.866 12.39-40.252 17.015-47.272 16.519-99.693 21.888-150.147 24.366-25.555 1.156-48.864 3.221-70.487 3.634-26.491.496-48.302-.413-70.487 1.322-4.774.412-9.642.825-14.603 1.486-17.505 2.396-37.631 6.69-56.82 17.676-26.959 15.363-48.021 40.306-73.015 57.734-3.369 2.313-6.833 4.543-10.39 6.608-46.055 27.339-103.999 33.699-160.725 23.87-5.617-.991-11.14-2.065-16.662-3.386-56.072-12.72-108.492-47.245-143.595-95.564" stroke="#000" stroke-opacity="0.16" stroke-miterlimit="10"></path><path d="M1064.69 179.814c-24.43 44.767-71.419 72.188-121.031 75.327-10.859.661-21.811.413-32.856-1.239-32.95-4.79-65.432-19.575-97.072-37.994-17.224-10.077-34.541-20.401-53.076-27.752-4.867-1.9-9.735-3.634-14.603-5.038-27.614-8.177-55.041-7.599-80.035 2.808-25.648 10.655-48.676 27.256-74.699 40.472-13.386 6.855-26.959 12.389-40.439 16.932-47.553 15.941-100.348 19.823-150.896 22.136-25.742 1.073-49.051 3.551-70.487 4.708-26.397 1.486-47.927 2.064-69.738 5.286-4.68.66-9.454 1.404-14.322 2.395-17.13 3.469-36.882 8.425-55.978 19.658-26.771 15.775-48.395 40.306-73.856 57.321-3.464 2.313-6.927 4.46-10.578 6.443C58.407 387.707.276 393.159-56.637 383.165c-5.617-.992-11.233-2.065-16.756-3.387-56.259-12.637-108.96-46.914-144.531-95.15" stroke="#000" stroke-opacity="0.16" stroke-miterlimit="10"></path><path d="M1062.63 163.13c-23.49 45.345-69.64 73.923-118.971 78.466-10.859.991-21.904.991-32.95-.331-33.231-3.882-66.181-17.841-98.195-36.012-17.411-9.911-34.729-20.153-53.357-27.504-4.867-1.9-9.735-3.634-14.603-5.038-27.708-8.177-55.135-7.517-80.035 3.303-25.461 11.068-48.208 28.166-74.137 41.546-13.386 6.938-27.053 12.39-40.626 16.767-47.834 15.446-101.003 17.758-151.645 19.906-25.93.991-49.144 3.799-70.487 5.781-26.21 2.396-47.459 4.543-68.989 9.251-4.587.991-9.268 2.065-13.948 3.304-16.756 4.46-36.133 10.159-55.042 21.723-26.678 16.271-48.676 40.306-74.605 56.826-3.464 2.23-7.114 4.294-10.765 6.277C57.003 382.999-1.222 387.377-58.229 377.3c-5.616-.991-11.233-2.147-16.756-3.386-56.445-12.637-109.428-46.667-145.467-94.82" stroke="#000" stroke-opacity="0.16" stroke-miterlimit="10"></path><path d="M1060.58 146.362c-22.47 45.923-67.777 75.658-116.921 81.605-10.859 1.321-21.905 1.569-32.95.578-33.418-2.974-66.93-16.106-99.225-34.03-17.505-9.746-35.009-19.988-53.731-27.256a191.131 191.131 0 00-14.697-5.039c-27.801-8.094-55.322-7.433-80.128 3.882-25.274 11.481-47.74 29.074-73.67 42.537-13.386 7.021-27.146 12.39-40.813 16.602-48.114 14.867-101.658 15.693-152.394 17.758-26.116.991-49.331 4.13-70.487 6.856-26.116 3.386-47.085 7.103-68.146 13.132-4.494 1.322-9.08 2.643-13.667 4.213-16.288 5.451-35.384 11.976-54.199 23.705-26.585 16.684-49.051 40.389-75.355 56.413-3.557 2.147-7.208 4.212-10.952 6.112-47.927 24.696-106.339 28.082-163.44 18.006-5.616-.992-11.233-2.148-16.85-3.387-56.726-12.637-109.989-46.501-146.59-94.489" stroke="#000" stroke-opacity="0.16" stroke-miterlimit="10"></path><path d="M1058.52 129.678c-21.53 46.502-65.998 77.392-114.768 84.661-10.765 1.652-21.904 2.23-33.044 1.569-33.605-2.065-67.678-14.372-100.347-32.047-17.692-9.581-35.291-19.74-54.106-27.009-4.868-1.9-9.829-3.551-14.79-5.038-27.989-8.095-55.51-7.351-80.222 4.377-25.181 11.894-47.272 30.065-73.202 43.528-13.479 7.021-27.24 12.39-41 16.437-48.395 14.289-102.314 13.628-153.143 15.528-26.304.908-49.519 4.46-70.487 8.012-25.929 4.377-46.617 9.581-67.398 17.097-4.399 1.569-8.892 3.221-13.386 5.038-15.913 6.443-34.728 13.711-53.263 25.77-26.397 17.098-49.425 40.39-76.103 56-3.651 2.065-7.301 4.047-11.046 5.864-48.582 23.871-107.087 26.266-164.282 16.024a376.408 376.408 0 01-16.85-3.386c-56.913-12.472-110.363-46.089-147.432-93.994" stroke="#000" stroke-opacity="0.16" stroke-miterlimit="10"></path><path d="M1056.46 112.993c-20.6 47.08-64.125 79.127-112.707 87.8-10.765 1.899-21.904 2.808-33.137 2.478-33.887-1.157-68.428-12.638-101.472-30.065-17.879-9.416-35.571-19.576-54.386-26.761-4.868-1.9-9.829-3.552-14.79-5.039-28.082-8.094-55.697-7.268-80.316 4.873-24.993 12.39-46.804 30.974-72.733 44.602-13.48 7.103-27.334 12.39-41.188 16.272-48.676 13.793-102.875 11.563-153.892 13.297-26.491.826-49.705 4.791-70.487 9.086-25.742 5.286-46.242 12.059-66.555 21.062-4.306 1.9-8.705 3.799-13.105 5.947-15.539 7.433-33.98 15.445-52.421 27.752-26.303 17.51-49.705 40.389-76.852 55.504a139.322 139.322 0 01-11.233 5.699C52.042 368.462-6.65 369.866-64.032 359.542c-5.71-.991-11.327-2.148-16.943-3.387-57.101-12.472-110.832-45.84-148.463-93.581" stroke="#000" stroke-opacity="0.16" stroke-miterlimit="10"></path><path d="M1054.4 96.227c-19.57 47.657-62.346 80.943-110.647 90.937-10.765 2.231-21.905 3.47-33.138 3.387-34.073-.248-69.176-10.985-102.5-28.083-17.973-9.25-35.852-19.327-54.761-26.595-4.961-1.9-9.829-3.552-14.884-4.956-28.176-8.095-55.884-7.186-80.409 5.451-24.806 12.802-46.336 31.882-72.172 45.593-13.48 7.186-27.427 12.389-41.375 16.106-48.957 13.215-103.53 9.499-154.64 11.068-26.679.743-49.8 5.121-70.581 10.159-25.649 6.278-45.774 14.537-65.807 24.944-4.212 2.23-8.518 4.46-12.824 6.856-15.164 8.424-33.231 17.262-51.578 29.817-26.117 17.923-50.08 40.389-77.601 55.091-3.744 1.982-7.582 3.799-11.42 5.534-49.8 22.136-108.68 22.549-166.155 12.059-5.71-1.074-11.326-2.148-16.943-3.386-57.288-12.39-111.3-45.511-149.398-93.169" stroke="#000" stroke-opacity="0.16" stroke-miterlimit="10"></path><path d="M1052.24 79.542c-18.62 48.236-60.467 82.678-108.488 93.994-10.765 2.56-21.904 4.047-33.231 4.295-34.26.661-69.925-9.251-103.624-26.1-18.16-9.086-36.132-19.08-55.135-26.348a174.276 174.276 0 00-14.884-4.956c-28.269-8.095-56.071-7.103-80.503 5.947-24.712 13.215-45.868 32.873-71.703 46.666-13.574 7.269-27.521 12.39-41.656 15.941-49.331 12.72-104.186 7.434-155.389 8.838-26.866.661-49.987 5.369-70.581 11.233-25.461 7.268-45.4 17.015-65.058 28.909a779.718 779.718 0 00-12.543 7.681c-14.697 9.416-32.576 18.997-50.642 31.799-26.023 18.337-50.361 40.39-78.35 54.679-3.838 1.899-7.676 3.717-11.608 5.368-50.454 21.228-109.427 20.649-166.996 10.077-5.71-1.074-11.327-2.147-17.037-3.386-57.569-12.39-111.768-45.263-150.335-92.838" stroke="#000" stroke-opacity="0.16" stroke-miterlimit="10"></path><path d="M1050.18 62.858c-17.69 48.732-58.688 84.413-106.428 97.133-10.765 2.891-21.904 4.708-33.324 5.204-34.542 1.569-70.675-7.517-104.748-24.118-18.253-8.921-36.32-18.915-55.416-26.101a166.175 166.175 0 00-14.977-4.955c-28.363-8.095-56.259-7.021-80.503 6.525-24.525 13.71-45.4 33.781-71.236 47.657-13.573 7.351-27.614 12.39-41.843 15.776-49.612 12.142-104.841 5.369-156.138 6.69-26.959.579-50.174 5.7-70.581 12.307-25.367 8.26-45.025 19.493-64.215 32.791-4.025 2.808-8.144 5.616-12.169 8.59-14.322 10.407-31.827 20.731-49.799 33.864-25.836 18.832-50.736 40.389-79.193 54.183-3.838 1.817-7.769 3.551-11.794 5.121-51.11 20.401-110.177 18.831-167.934 8.094-5.71-1.074-11.42-2.23-17.036-3.386-57.756-12.307-112.236-44.932-151.365-92.425" stroke="#000" stroke-opacity="0.16" stroke-miterlimit="10"></path><path d="M1048.13 46.09c-16.67 49.31-56.824 86.231-104.377 100.272-10.765 3.139-21.904 5.286-33.325 6.112-34.728 2.478-71.329-5.782-105.777-22.136-18.441-8.755-36.601-18.666-55.79-25.852a165.908 165.908 0 00-14.977-4.956c-28.551-8.094-56.446-6.938-80.597 7.021-24.432 14.124-44.932 34.69-70.768 48.731-13.573 7.434-27.708 12.39-42.03 15.694-49.893 11.563-105.496 3.303-156.887 4.46-27.146.495-50.361 6.029-70.581 13.463-25.18 9.168-44.651 21.97-63.466 36.755-3.931 3.056-7.956 6.195-11.888 9.498-13.948 11.399-31.078 22.549-48.957 35.847-25.742 19.245-51.017 40.472-79.941 53.77-3.932 1.817-7.863 3.469-11.982 4.956-51.672 19.575-111.02 16.932-168.87 6.194-5.71-1.074-11.42-2.23-17.13-3.386-57.943-12.224-112.704-44.684-152.3-92.012" stroke="#000" stroke-opacity="0.16" stroke-miterlimit="10"></path><path d="M1046.07 29.407c-15.73 49.888-55.045 87.964-102.317 103.327-10.765 3.469-21.905 5.947-33.418 7.021-34.916 3.469-72.079-4.047-106.901-20.153-18.534-8.59-36.881-18.502-56.165-25.605-4.961-1.817-10.016-3.552-15.071-4.956-28.644-8.012-56.632-6.938-80.69 7.516-24.244 14.537-44.37 35.682-70.206 49.723-13.667 7.434-27.801 12.389-42.217 15.528-50.174 11.068-106.058 1.239-157.636 2.23-27.334.496-50.455 6.36-70.581 14.537-24.993 10.159-44.183 24.448-62.717 40.72-3.838 3.386-7.77 6.855-11.608 10.324-13.573 12.389-30.328 24.283-48.02 37.912-25.555 19.657-51.391 40.471-80.691 53.356-3.931 1.735-8.05 3.304-12.075 4.791-52.327 18.667-111.768 15.115-169.712 4.212-5.71-1.073-11.42-2.23-17.13-3.386-58.224-12.224-113.172-44.354-153.33-91.599" stroke="#000" stroke-opacity="0.16" stroke-miterlimit="10"></path><path d="M1044.01 12.722c-14.79 50.466-53.173 89.782-100.164 106.466-10.765 3.8-21.998 6.525-33.512 7.929-35.196 4.378-72.827-2.395-107.93-18.171-18.721-8.424-37.162-18.253-56.445-25.357a244.724 244.724 0 00-15.071-4.955c-28.738-8.012-56.82-6.856-80.784 8.094-24.151 14.95-43.902 36.59-69.738 50.796-13.667 7.517-27.895 12.39-42.405 15.363-50.454 10.49-106.713-.826-158.384 0-27.521.413-50.642 6.69-70.581 15.611-24.9 11.15-43.809 26.926-61.875 44.602-3.744 3.716-7.582 7.433-11.327 11.233-13.198 13.38-29.58 26.1-47.178 39.893-25.461 20.071-51.765 40.472-81.439 52.862a216.015 216.015 0 01-12.263 4.625c-52.982 17.841-112.517 13.215-170.647 2.23a636.182 636.182 0 01-17.224-3.469c-58.412-12.142-113.64-44.106-154.266-91.186" stroke="#000" stroke-opacity="0.16" stroke-miterlimit="10"></path><path d="M1041.95-4.044c-13.76 51.044-51.3 91.598-98.104 109.522-10.765 4.129-21.998 7.186-33.512 8.92-35.384 5.286-73.576-.661-109.053-16.106-18.909-8.26-37.443-18.006-56.82-25.11-4.962-1.816-10.016-3.468-15.165-4.872-28.831-8.012-57.007-6.773-80.877 8.59-23.964 15.445-43.434 37.498-69.27 51.787-13.667 7.599-27.989 12.389-42.592 15.198-50.736 9.994-107.369-2.891-159.134-2.23-27.708.33-50.829 7.02-70.58 16.684-24.713 12.142-43.434 29.404-61.126 48.566-3.651 3.965-7.395 8.012-11.046 12.142-12.825 14.371-28.925 27.835-46.336 41.958-25.274 20.484-52.046 40.472-82.188 52.449-4.119 1.652-8.238 3.056-12.45 4.377-53.544 17.015-113.36 11.399-171.584.248a570.947 570.947 0 01-17.224-3.469c-58.598-12.141-114.108-43.858-155.202-90.855" stroke="#000" stroke-opacity="0.16" stroke-miterlimit="10"></path><path d="M1039.89-20.729c-12.83 51.622-49.521 93.333-96.044 112.66-10.672 4.46-21.998 7.765-33.606 9.83-35.571 6.194-74.324 1.073-110.176-14.124-19.003-8.095-37.724-17.841-57.195-24.944-5.055-1.817-10.11-3.47-15.164-4.873-28.925-8.012-57.195-6.69-80.878 9.085-23.776 15.859-42.966 38.49-68.802 52.779-13.76 7.681-28.082 12.389-42.779 15.032-51.016 9.416-108.023-4.955-159.882-4.46-27.896.248-50.923 7.269-70.674 17.758-24.526 13.05-43.06 31.882-60.284 52.531a1782.62 1782.62 0 00-10.671 12.968c-12.357 15.362-28.176 29.569-45.4 43.941-25.181 20.979-52.421 40.471-82.937 52.035a158.979 158.979 0 01-12.637 4.212c-54.2 16.106-114.108 9.499-172.426-1.734a642.71 642.71 0 01-17.318-3.469c-58.879-12.059-114.576-43.528-156.232-90.443" stroke="#000" stroke-opacity="0.16" stroke-miterlimit="10"></path><path d="M1037.83-37.413c-11.89 52.2-47.647 95.15-93.89 115.8a156.454 156.454 0 01-33.699 10.737c-35.758 7.103-75.073 2.808-111.206-12.142-19.19-8.012-37.911-17.593-57.476-24.696-5.054-1.817-10.109-3.47-15.258-4.873-29.112-8.012-57.382-6.69-80.971 9.664-23.683 16.27-42.498 39.398-68.24 53.852-13.76 7.764-28.176 12.389-42.966 14.867-51.297 8.838-108.679-7.02-160.632-6.607-28.082.165-51.11 7.598-70.674 18.831-24.432 14.042-42.685 34.36-59.535 56.413a1012.815 1012.815 0 00-10.39 13.876c-11.982 16.354-27.427 31.387-44.558 46.006-24.993 21.392-52.701 40.555-83.685 51.54-4.213 1.487-8.519 2.808-12.825 4.047-54.854 15.28-114.857 7.681-173.362-3.717a5369.223 5369.223 0 01-17.317-3.469c-59.067-11.976-115.045-43.28-157.168-90.029" stroke="#000" stroke-opacity="0.16" stroke-miterlimit="10"></path><path d="M1035.68-54.18c-10.86 52.695-45.779 96.967-91.834 118.855-10.671 5.12-21.998 9.002-33.792 11.645-36.039 8.095-75.823 4.543-112.33-10.159-19.283-7.846-38.192-17.345-57.85-24.448-5.055-1.817-10.11-3.47-15.258-4.873-29.206-8.012-57.569-6.608-81.065 10.159-23.589 16.684-42.03 40.307-67.772 54.844-13.76 7.764-28.27 12.389-43.153 14.702-51.578 8.342-109.241-9.086-161.381-8.838-28.269.082-51.203 8.012-70.674 19.988-24.244 15.115-42.311 36.92-58.786 60.378-3.37 4.873-6.833 9.828-10.109 14.784-11.701 17.345-26.679 33.121-43.622 47.988-24.806 21.806-53.076 40.555-84.528 51.127-4.306 1.404-8.612 2.726-13.011 3.882-55.416 14.537-115.7 5.782-174.205-5.616-5.804-1.157-11.608-2.313-17.318-3.469-59.254-11.977-115.512-42.95-158.197-89.617" stroke="#000" stroke-opacity="0.16" stroke-miterlimit="10"></path><path d="M1033.62-70.865c-9.93 53.274-43.906 98.784-89.774 121.994-10.671 5.369-21.998 9.664-33.793 12.555-36.226 9.085-76.571 6.194-113.453-8.177-19.47-7.682-38.472-17.18-58.224-24.201-5.055-1.817-10.203-3.469-15.352-4.873-29.299-8.012-57.756-6.525-81.158 10.737-23.402 17.098-41.562 41.298-67.304 55.918-13.76 7.846-28.363 12.306-43.341 14.619-51.858 7.764-109.896-11.15-162.129-11.068-28.457 0-51.391 8.26-70.674 21.062-24.057 16.024-41.936 39.398-57.943 64.342-3.277 5.204-6.647 10.407-9.829 15.693-11.233 18.337-25.93 34.938-42.779 50.053-24.619 22.301-53.357 40.555-85.277 50.714-4.306 1.404-8.706 2.561-13.199 3.634-56.071 13.629-116.448 3.965-175.14-7.598l-17.412-3.469c-59.441-11.894-115.98-42.702-159.134-89.204" stroke="#000" stroke-opacity="0.16" stroke-miterlimit="10"></path><path d="M1031.56-87.55c-8.9 53.853-42.033 100.52-87.714 125.133a161.545 161.545 0 01-33.886 13.463c-36.414 9.994-77.321 7.93-114.483-6.194-19.658-7.516-38.754-16.932-58.505-23.953-5.055-1.817-10.203-3.47-15.352-4.873-29.393-7.93-57.943-6.443-81.252 11.233-23.215 17.593-41.094 42.206-66.836 56.908-13.854 7.93-28.457 12.307-43.528 14.454-52.139 7.269-110.551-13.297-162.971-13.297-28.645 0-51.579 8.59-70.675 22.135-23.87 17.015-41.562 41.876-57.194 68.224-3.276 5.452-6.365 10.986-9.548 16.519-10.859 19.328-25.181 36.673-41.937 52.036-24.525 22.714-53.731 40.554-86.025 50.218a183.06 183.06 0 01-13.293 3.469c-56.726 12.802-117.197 2.065-176.077-9.581l-17.411-3.469c-59.722-11.894-116.448-42.372-160.163-88.791" stroke="#000" stroke-opacity="0.16" stroke-miterlimit="10"></path><path d="M1029.5-104.315c-7.96 54.43-40.067 102.418-85.561 128.188a156.712 156.712 0 01-33.979 14.372c-36.601 10.903-78.07 9.664-115.607-4.212-19.751-7.352-39.034-16.767-58.879-23.706-5.055-1.817-10.203-3.468-15.445-4.79-29.581-7.93-58.037-6.36-81.252 11.729-23.121 18.005-40.626 43.114-66.275 57.982-13.854 8.011-28.55 12.306-43.715 14.289-52.42 6.69-111.206-15.363-163.72-15.528-28.832-.083-51.766 8.92-70.674 23.21-23.777 18.005-41.188 44.353-56.353 72.188-3.182 5.782-6.178 11.563-9.267 17.428-10.484 20.318-24.525 38.407-41 54.1-24.432 23.127-54.106 40.554-86.775 49.805-4.493 1.239-8.986 2.313-13.48 3.304-57.381 11.894-118.04.248-176.919-11.563-5.803-1.157-11.701-2.313-17.504-3.47-59.91-11.811-116.917-42.123-161.1-88.46" stroke="#000" stroke-opacity="0.16" stroke-miterlimit="10"></path><path d="M1027.44-121c-7.02 55.009-38.287 104.153-83.5 131.327-43.153 25.935-100.441 31.139-150.709 13.133-24.993-9.003-49.144-21.475-74.699-28.33-29.674-7.93-58.225-6.278-81.346 12.306-22.934 18.42-40.158 44.106-65.806 58.974-61.875 35.846-140.506-3.221-208.372-3.634-72.921-.413-107.275 59.551-135.264 118.772-27.052 57.157-79.941 96.885-141.348 108.614-63.747 12.141-130.864-4.378-195.36-17.015C-169.06 261.336-226.255 231.271-271 185.1" stroke="#000" stroke-opacity="0.16" stroke-miterlimit="10"></path></svg>