<svg width="100%" viewBox="0 0 1920 830" fill="none" xmlns="http://www.w3.org/2000/svg"><path d="M2230.65 719.473C2155.37 795.626 2027.96 810.913 1927.48 756.021C1848.1 712.663 1788.57 632.48 1706.2 596.626C1586.03 544.514 1458.46 601.212 1349.47 658.466C1240.48 715.721 1115.43 775.337 993.688 728.367C945.967 709.884 904.231 676.532 859.188 651.24C814.144 625.809 760.753 608.16 715.395 624.697C667.516 642.207 641.372 692.235 607.826 730.729C543.725 804.659 441.669 841.069 341.659 825.643C241.65 810.218 146.051 743.375 92.5024 651.24" stroke="black" stroke-opacity="0.16" stroke-miterlimit="10"></path><path d="M2227.19 691.402C2166.55 755.326 2069.85 778.673 1981.34 755.326C1962.91 750.463 1944.8 743.653 1927.32 734.759C1876.13 708.495 1832.35 666.805 1785.89 630.673C1760.06 610.384 1733.28 592.041 1703.52 579.256C1695.64 575.92 1687.77 573.002 1679.89 570.501C1635.8 556.604 1590.91 556.187 1546.81 564.664C1500.66 573.558 1455.15 591.624 1411.36 612.052C1389.47 622.196 1368.05 633.036 1347.11 643.597C1272.93 681.396 1191.03 718.778 1108.34 725.587C1068.66 728.784 1029.12 725.449 990.066 711.552C942.66 694.737 901.239 664.025 856.825 640.957C847.06 635.954 837.138 631.229 826.744 627.199C790.047 612.608 750.201 605.937 714.922 619.417C667.201 637.622 640.27 686.955 606.093 724.754C601.526 729.756 596.801 734.759 591.761 739.345C526.401 801.741 431.274 830.507 338.037 815.916C328.902 814.526 319.767 812.72 310.79 810.357C220.546 788.122 136.758 725.587 87.305 642.207" stroke="black" stroke-opacity="0.16" stroke-miterlimit="10"></path><path d="M2223.72 663.192C2164.66 728.089 2069.54 753.242 1981.34 732.397C1962.91 728.089 1944.8 721.697 1927.32 713.359C1875.66 688.623 1831.09 648.322 1784.16 612.608C1758.01 592.597 1731.08 574.253 1701.31 561.607C1693.44 558.272 1685.56 555.354 1677.69 552.852C1633.28 538.956 1588.39 538.539 1544.45 547.849C1498.46 557.438 1453.73 576.338 1409.79 596.905C1387.9 607.188 1366.32 617.889 1345.22 628.172C1270.56 665.137 1188.19 699.879 1105.19 706.41C1065.19 709.607 1025.66 706.827 986.916 694.181C939.668 679.034 898.719 650.963 855.093 630.257C845.486 625.671 835.721 621.502 825.484 617.889C789.418 604.965 750.201 599.545 715.237 613.442C667.831 632.341 639.955 680.979 605.149 718.084C600.424 723.086 595.541 727.811 590.659 732.397C524.196 793.265 428.912 820.363 335.36 805.633C326.225 804.243 317.09 802.297 307.956 800.074C217.396 777.839 133.136 715.86 82.738 632.619" stroke="black" stroke-opacity="0.16" stroke-miterlimit="10"></path><path d="M2220.1 635.12C2162.77 700.99 2069.06 727.949 1981.34 709.606C1962.91 705.715 1944.8 700.017 1927.16 692.096C1875.19 668.888 1829.67 629.978 1782.11 594.68C1755.65 574.947 1728.56 556.742 1698.64 544.096C1690.76 540.761 1682.89 537.843 1674.85 535.341C1630.28 521.445 1585.24 521.167 1541.61 531.172C1495.94 541.456 1451.68 561.189 1407.74 582.034C1385.69 592.457 1364.12 603.018 1342.85 613.024C1267.57 649.016 1184.73 681.256 1101.57 687.51C1061.25 690.567 1021.72 688.344 983.294 677.087C936.36 663.469 895.884 638.038 852.73 619.694C843.281 615.664 833.674 611.912 823.751 608.855C788.315 597.599 749.729 593.569 714.922 607.882C667.674 627.615 639.167 675.42 603.574 711.69C598.849 716.554 593.809 721.279 588.769 725.726C521.204 785.204 425.762 810.634 332.052 795.765C322.918 794.236 313.625 792.43 304.648 790.206C213.616 768.111 129.041 706.409 77.8555 623.307" stroke="black" stroke-opacity="0.16" stroke-miterlimit="10"></path><path d="M2216.64 607.049C2160.88 673.892 2068.75 702.658 1981.34 686.677C1962.91 683.342 1944.8 678.061 1927 670.696C1874.71 648.878 1828.25 611.496 1780.06 576.615C1753.44 557.16 1726.04 539.094 1695.96 526.309C1688.08 522.974 1680.05 520.056 1672.18 517.554C1627.45 503.658 1582.25 503.519 1538.78 514.358C1493.26 525.475 1449.64 546.043 1405.7 566.888C1383.65 577.449 1361.91 587.733 1340.49 597.599C1264.74 632.758 1181.26 662.358 1097.95 668.472C1057.32 671.391 1017.94 669.862 979.514 659.995C932.895 648.044 892.734 625.254 850.368 609.272C841.076 605.798 831.626 602.602 821.861 599.962C787.055 590.512 748.941 587.455 714.45 602.324C667.359 622.613 638.065 669.862 601.841 705.437C596.959 710.162 591.919 714.748 586.722 719.195C517.896 777.005 422.297 800.907 328.43 785.899C319.138 784.37 310.003 782.564 300.869 780.34C209.521 758.384 124.474 697.099 72.5009 614.136" stroke="black" stroke-opacity="0.16" stroke-miterlimit="10"></path><path d="M2213.17 578.839C2158.99 646.654 2068.43 677.366 1981.34 663.747C1962.91 660.829 1944.64 656.104 1927 649.295C1874.4 629.006 1826.99 593.013 1778.33 558.549C1751.4 539.372 1723.83 521.306 1693.75 508.66C1685.88 505.325 1677.85 502.407 1669.81 499.905C1624.93 486.009 1579.57 486.148 1536.26 497.543C1491.06 509.494 1447.9 530.756 1404.12 551.74C1382.07 562.441 1360.18 572.585 1338.6 582.313C1262.37 616.499 1178.27 643.597 1094.8 649.434C1054.01 652.213 1014.48 651.24 976.364 642.763C930.06 632.341 890.214 612.33 848.478 598.711C839.343 595.793 830.051 593.013 820.444 590.929C786.268 583.147 748.784 581.479 714.607 596.765C667.674 617.749 637.75 664.442 600.739 699.184C595.699 703.909 590.659 708.356 585.304 712.525C515.376 768.945 419.62 791.18 325.438 775.893C316.145 774.365 307.011 772.558 297.876 770.335C206.214 748.378 120.694 687.511 67.776 604.825" stroke="black" stroke-opacity="0.16" stroke-miterlimit="10"></path><path d="M2209.71 550.768C2157.26 619.556 2067.96 652.074 1981.5 640.957C1963.23 638.594 1944.8 634.425 1927 628.033C1874.08 609.272 1825.73 574.67 1776.44 540.623C1749.35 521.723 1721.47 503.797 1691.23 491.151C1683.2 487.816 1675.33 484.897 1667.29 482.535C1622.25 468.638 1576.89 468.916 1533.58 481.006C1488.69 493.652 1446.01 515.748 1402.23 537.01C1380.02 547.71 1358.13 557.855 1336.4 567.305C1259.7 600.518 1174.96 625.115 1091.34 630.673C1050.23 633.314 1010.7 633.036 972.899 625.81C926.753 617.055 887.379 599.545 846.273 588.289C837.296 585.787 828.161 583.564 818.711 581.896C785.165 575.782 748.154 575.365 714.292 591.068C667.674 612.747 636.805 658.745 599.006 692.653C593.966 697.238 588.611 701.546 583.256 705.715C512.384 760.607 416.154 781.174 321.972 765.749C312.68 764.22 303.545 762.414 294.253 760.19C202.119 738.373 116.284 677.922 62.5783 595.376" stroke="black" stroke-opacity="0.16" stroke-miterlimit="10"></path><path d="M2206.24 522.696C2155.37 592.319 2067.65 626.921 1981.5 618.027C1963.23 616.221 1944.8 612.469 1926.85 606.771C1873.45 589.539 1824.32 556.326 1774.39 522.696C1746.99 504.075 1719.11 486.148 1688.56 473.641C1680.52 470.306 1672.49 467.388 1664.46 465.025C1619.1 451.128 1573.74 451.545 1530.59 464.469C1485.86 477.81 1443.81 500.879 1400.03 522.14C1377.82 532.98 1355.77 542.985 1333.88 552.157C1256.7 584.536 1171.5 606.354 1087.56 611.774C1046.13 614.275 1006.76 614.692 969.119 608.717C923.288 601.49 884.229 586.76 843.911 577.866C835.091 575.921 826.114 574.253 816.822 573.002C784.063 568.694 747.524 569.389 713.82 585.648C667.359 608.022 635.86 653.325 597.274 686.538C592.076 690.985 586.722 695.293 581.209 699.323C509.234 752.686 412.847 771.725 318.35 756.021C309.058 754.493 299.766 752.686 290.631 750.463C198.182 728.645 111.874 668.611 57.2235 586.343" stroke="black" stroke-opacity="0.16" stroke-miterlimit="10"></path><path d="M2202.78 494.485C2153.48 565.08 2067.17 601.49 1981.5 595.097C1963.23 593.708 1944.8 590.65 1926.85 585.37C1873.14 569.666 1823.06 537.843 1772.66 504.63C1744.94 486.425 1716.9 468.499 1686.35 455.992C1678.32 452.656 1670.29 449.877 1662.25 447.376C1616.74 433.618 1571.22 434.035 1528.23 447.654C1483.81 461.828 1442.23 485.591 1398.45 507.131C1376.24 518.11 1354.04 527.976 1331.99 536.87C1254.34 568.277 1168.51 587.593 1084.41 592.735C1042.67 595.236 1003.3 596.07 965.969 591.484C920.295 585.925 881.867 573.696 842.021 567.304C833.358 565.914 824.539 564.664 815.404 563.969C783.275 561.328 747.366 563.274 713.977 579.95C667.831 603.018 635.387 647.627 596.171 680.145C590.816 684.453 585.461 688.622 579.792 692.652C506.714 744.625 410.169 761.857 315.515 746.015C306.223 744.486 296.931 742.541 287.638 740.456C194.874 718.778 108.094 659.022 52.6559 576.893" stroke="black" stroke-opacity="0.16" stroke-miterlimit="10"></path><path d="M2199.31 466.415C2151.75 537.983 2066.86 576.337 1981.65 572.307C1963.38 571.474 1944.96 568.833 1926.85 564.108C1872.82 549.934 1821.8 519.5 1770.77 486.704C1742.73 468.777 1714.54 450.989 1683.83 438.482C1675.8 435.147 1667.77 432.368 1659.58 429.866C1613.9 416.109 1568.23 416.665 1525.55 430.978C1481.45 445.848 1440.34 470.445 1396.72 492.124C1374.35 503.241 1352.15 512.969 1329.94 521.584C1251.82 552.157 1165.36 568.833 1081.1 573.697C1039.05 576.059 999.673 577.588 962.662 574.253C917.303 570.223 879.19 560.773 840.131 556.604C831.626 555.77 822.964 554.936 814.144 554.659C782.645 553.686 747.209 557.021 714.135 574.114C668.146 597.877 634.915 641.791 595.069 673.475C589.714 677.783 584.202 681.813 578.532 685.565C504.352 736.01 407.492 751.713 312.681 735.732C303.388 734.204 294.096 732.258 284.804 730.173C191.567 708.495 104.472 649.295 48.2466 567.305" stroke="black" stroke-opacity="0.16" stroke-miterlimit="10"></path><path d="M2195.85 438.343C2149.86 510.884 2066.39 551.045 1981.65 549.378C1963.38 548.961 1944.96 546.876 1926.69 542.707C1872.19 530.061 1820.38 501.017 1768.88 468.638C1740.69 450.989 1712.18 433.201 1681.31 420.833C1673.28 417.637 1665.09 414.719 1657.06 412.217C1611.23 398.46 1565.39 399.155 1522.87 414.302C1478.93 430.005 1438.45 455.436 1394.83 477.254C1372.46 488.51 1349.94 498.099 1327.74 506.437C1249.15 536.037 1162.05 550.211 1077.63 554.936C1035.27 557.16 995.893 559.383 959.197 557.438C914.153 555.075 876.512 548.266 837.926 546.459C829.579 546.042 821.074 545.903 812.412 546.042C781.543 546.737 746.736 551.323 713.82 568.833C667.989 593.291 634.127 636.649 593.494 667.499C587.981 671.668 582.312 675.559 576.642 679.311C501.359 728.228 404.342 742.263 309.216 726.143C299.923 724.615 290.474 722.669 281.182 720.584C187.63 699.045 100.22 640.123 42.8917 558.41" stroke="black" stroke-opacity="0.16" stroke-miterlimit="10"></path><path d="M2192.22 410.272C2147.81 483.785 2065.91 523.947 1981.5 526.587C1963.23 527.143 1944.8 525.197 1926.53 521.445C1871.72 510.328 1818.96 482.673 1766.83 450.711C1738.32 433.34 1709.66 415.691 1678.79 403.184C1670.76 399.988 1662.57 397.07 1654.38 394.569C1608.39 380.811 1562.4 381.645 1520.04 397.487C1476.41 413.885 1436.41 440.15 1392.78 462.106C1370.42 473.363 1347.74 482.951 1325.37 491.011C1246.31 519.639 1158.59 531.312 1074.01 535.759C1031.33 537.843 992.113 540.623 955.417 540.067C910.531 539.233 873.362 535.064 835.406 535.759C827.216 535.898 818.869 536.176 810.364 536.87C780.283 539.233 745.949 545.069 713.347 563.135C667.831 588.288 633.025 630.951 591.761 661.107C586.249 665.137 580.422 669.028 574.595 672.641C498.209 720.168 401.035 732.536 305.751 716.137C296.301 714.47 287.009 712.663 277.717 710.579C183.85 689.178 95.9676 630.673 37.852 549.1" stroke="black" stroke-opacity="0.16" stroke-miterlimit="10"></path><path d="M2188.76 382.061C2146.08 456.548 2065.44 500.6 1981.5 503.657C1963.23 504.352 1944.8 503.24 1926.37 500.044C1871.25 490.455 1817.54 464.191 1764.78 432.645C1736.12 415.413 1707.14 397.904 1676.11 385.536C1667.92 382.339 1659.89 379.421 1651.7 377.059C1605.4 363.301 1559.41 364.274 1517.2 380.95C1473.89 398.043 1434.52 425.141 1390.73 447.376C1368.37 458.771 1345.53 468.221 1323.01 476.003C1243.48 503.796 1155.28 512.829 1070.39 516.998C1027.39 518.944 988.176 522.418 951.795 523.113C907.223 523.946 870.527 522.418 833.201 525.336C825.169 526.031 816.979 526.726 808.632 527.838C779.18 531.868 745.319 539.094 713.032 557.576C667.674 583.424 632.237 625.392 590.186 654.714C584.516 658.605 578.689 662.357 572.704 665.831C495.217 711.829 397.727 722.53 302.285 705.993C292.836 704.325 283.544 702.519 274.251 700.295C179.912 678.894 91.7148 620.806 32.6542 539.511" stroke="black" stroke-opacity="0.16" stroke-miterlimit="10"></path><path d="M2185.29 353.991C2144.19 429.311 2065.13 475.448 1981.65 480.728C1963.38 481.84 1944.96 481.423 1926.37 478.644C1870.93 470.584 1816.28 445.709 1763.05 414.719C1734.07 397.765 1704.94 380.394 1673.75 368.026C1665.56 364.83 1657.37 361.912 1649.18 359.549C1602.72 345.792 1556.58 346.764 1514.52 364.274C1471.37 382.201 1432.63 410.133 1388.84 432.368C1366.32 443.902 1343.48 453.213 1320.81 460.856C1240.8 487.677 1151.97 494.208 1066.92 498.099C1023.61 499.906 984.396 504.075 948.33 506.02C903.916 508.522 867.692 509.494 830.996 514.914C823.121 516.026 815.089 517.276 806.899 518.944C778.078 524.781 744.846 533.119 712.717 552.018C667.674 578.561 631.293 619.834 588.454 648.461C582.627 652.352 576.799 655.965 570.657 659.3C492.224 703.77 394.42 712.942 298.663 696.127C289.213 694.459 279.764 692.652 270.472 690.429C175.817 669.167 87.1474 611.496 27.2994 530.339" stroke="black" stroke-opacity="0.16" stroke-miterlimit="10"></path><path d="M2181.83 325.919C2142.3 402.212 2064.65 450.294 1981.65 457.937C1963.38 459.605 1944.8 459.605 1926.22 457.381C1870.3 450.85 1814.87 427.365 1761 396.792C1731.71 380.116 1702.57 362.884 1671.23 350.516C1663.04 347.32 1654.85 344.401 1646.66 342.039C1600.04 328.281 1553.9 329.393 1512 347.598C1469.17 366.219 1430.89 394.985 1387.27 417.498C1364.75 429.171 1341.75 438.343 1318.92 445.708C1238.44 471.695 1148.98 475.586 1063.77 479.199C1020.15 480.867 981.089 485.592 945.18 488.927C901.081 492.957 865.33 496.57 829.106 504.491C821.389 506.159 813.514 507.965 805.639 510.05C777.448 517.554 744.846 527.143 713.032 546.598C668.146 573.974 631.135 614.414 587.509 642.207C581.682 645.959 575.539 649.433 569.397 652.769C489.862 695.848 391.9 703.213 295.986 686.26C286.536 684.592 277.087 682.646 267.794 680.562C172.825 659.3 83.6828 602.046 23.0472 521.028" stroke="black" stroke-opacity="0.16" stroke-miterlimit="10"></path><path d="M2178.37 297.709C2140.57 374.974 2064.34 425.002 1981.65 435.008C1963.38 437.231 1944.8 437.648 1926.22 435.981C1869.99 430.978 1813.61 408.882 1759.27 378.726C1729.82 362.328 1700.37 345.096 1668.87 332.867C1660.68 329.671 1652.49 326.892 1644.14 324.39C1597.37 310.772 1551.06 311.883 1509.33 330.922C1466.8 350.238 1429 379.838 1385.38 402.49C1362.86 414.302 1339.7 423.335 1316.71 430.422C1235.76 455.436 1145.67 456.826 1060.31 460.3C1016.37 461.967 977.309 467.248 941.715 471.834C897.774 477.532 862.495 483.785 827.059 493.93C819.499 496.153 811.782 498.377 804.065 501.017C776.66 510.189 744.532 521.167 712.875 540.9C668.146 568.972 630.348 608.855 586.092 635.815C580.107 639.428 573.964 642.902 567.665 646.098C487.027 687.649 388.75 693.347 292.679 676.393C283.229 674.725 273.779 672.78 264.329 670.695C168.888 649.433 79.273 592.457 17.6925 511.717" stroke="black" stroke-opacity="0.16" stroke-miterlimit="10"></path><path d="M2174.9 269.637C2138.68 347.875 2063.87 399.849 1981.81 412.078C1963.7 414.857 1944.96 415.83 1926.22 414.718C1869.68 411.244 1812.35 390.538 1757.38 360.799C1727.61 344.679 1698.01 327.586 1666.35 315.357C1658.16 312.161 1649.81 309.382 1641.46 306.88C1594.37 293.262 1548.07 294.512 1506.49 314.245C1464.13 334.257 1426.96 364.829 1383.33 387.481C1360.65 399.293 1337.5 408.326 1314.35 415.135C1232.92 439.177 1142.21 438.065 1056.69 441.261C1012.43 442.79 973.372 448.765 938.093 454.741C894.467 462.106 859.66 470.861 824.697 483.507C817.294 486.147 809.734 488.927 802.175 491.984C775.401 502.823 743.744 515.052 712.56 535.341C668.146 564.108 629.403 603.296 584.517 629.561C578.375 633.035 572.232 636.37 565.932 639.428C484.192 679.589 385.758 683.619 289.529 666.387C280.079 664.719 270.472 662.774 261.18 660.689C165.423 639.705 75.4934 583.146 13.1254 502.545" stroke="black" stroke-opacity="0.16" stroke-miterlimit="10"></path><path d="M2171.44 241.566C2136.79 320.777 2063.55 374.696 1981.81 389.288C1963.7 392.484 1944.96 394.012 1926.06 393.457C1869.05 391.511 1810.93 372.195 1755.33 342.873C1725.25 327.031 1695.49 309.938 1663.83 297.848C1655.64 294.651 1647.29 291.872 1638.94 289.371C1591.7 275.752 1545.24 277.142 1503.81 297.57C1461.76 318.415 1425.07 349.682 1381.44 372.612C1358.76 384.563 1335.45 393.457 1312.14 399.988C1230.25 423.196 1139.06 419.443 1053.22 422.362C1008.65 423.751 969.592 430.422 934.628 437.648C891.317 446.542 856.825 457.937 822.649 473.085C815.404 476.281 808.002 479.477 800.6 483.09C774.455 495.597 743.429 509.077 712.402 529.783C668.146 559.244 628.773 597.738 583.099 623.169C576.957 626.643 570.657 629.839 564.2 632.757C481.515 671.39 382.766 673.752 286.221 656.382C276.614 654.714 267.164 652.768 257.715 650.684C161.643 629.7 71.2407 573.557 7.92774 493.235" stroke="black" stroke-opacity="0.16" stroke-miterlimit="10"></path><path d="M2167.97 213.356C2135.05 293.54 2063.08 349.543 1981.81 366.358C1963.7 370.111 1944.96 372.195 1926.06 372.056C1868.73 371.639 1809.67 353.574 1753.6 324.807C1723.36 309.243 1693.28 292.289 1661.47 280.06C1653.12 276.864 1644.93 274.085 1636.43 271.722C1589.02 258.103 1542.4 259.632 1501.14 280.894C1459.4 302.434 1423.18 334.535 1379.71 357.604C1357.03 369.694 1333.56 378.449 1310.1 384.702C1227.73 406.937 1135.91 400.683 1049.91 403.324C1005.03 404.574 966.127 411.94 931.163 420.417C888.009 430.978 854.148 444.875 820.444 462.384C813.357 466.137 806.112 469.889 798.867 473.919C773.353 488.093 742.957 502.963 712.088 524.086C668.146 554.241 627.828 592.04 581.524 616.776C575.224 620.112 568.767 623.169 562.31 626.087C478.523 663.33 379.458 664.025 282.756 646.376C273.149 644.57 263.699 642.763 254.25 640.679C157.863 619.834 66.9883 564.108 2.88786 483.924" stroke="black" stroke-opacity="0.16" stroke-miterlimit="10"></path><path d="M2164.35 185.285C2133.01 266.442 2062.61 324.391 1981.81 343.429C1963.7 347.737 1944.96 350.238 1925.9 350.655C1868.26 351.767 1808.25 335.091 1751.55 306.742C1721 291.456 1690.76 274.641 1658.79 262.412C1650.44 259.215 1642.09 256.436 1633.75 254.074C1586.18 240.455 1539.41 242.122 1498.3 264.079C1456.72 286.314 1421.13 319.388 1377.66 342.595C1354.82 354.824 1331.36 363.44 1307.58 369.416C1224.58 390.817 1132.28 381.923 1046.13 384.285C1000.93 385.397 962.032 393.318 927.383 403.185C884.544 415.414 850.998 431.812 817.924 451.823C810.994 455.992 803.907 460.3 796.82 464.747C772.093 480.589 742.011 496.709 711.615 518.249C667.831 549.1 626.883 586.204 579.792 610.245C573.334 613.441 566.877 616.499 560.262 619.278C475.373 654.992 376.151 654.02 279.291 636.232C269.684 634.425 260.235 632.619 250.627 630.534C153.768 609.689 62.5785 554.381 -2.30938 474.336" stroke="black" stroke-opacity="0.16" stroke-miterlimit="10"></path><path d="M2160.88 157.214C2131.12 239.204 2062.13 299.238 1981.81 320.639C1963.7 325.502 1944.96 328.56 1925.74 329.393C1867.63 332.034 1806.83 316.747 1749.51 288.815C1718.79 273.807 1688.4 256.992 1656.27 244.902C1647.92 241.705 1639.57 238.926 1631.07 236.564C1583.35 222.945 1536.42 224.752 1495.62 247.542C1454.36 270.611 1419.24 304.379 1375.77 327.726C1352.93 340.094 1329.31 348.571 1305.37 354.268C1221.9 374.697 1128.98 363.301 1042.67 365.525C997.311 366.498 958.252 375.114 923.918 386.231C881.237 400.128 848.163 419.027 815.877 441.401C809.104 446.125 802.175 450.85 795.402 455.853C771.306 473.363 741.854 490.734 711.615 512.83C668.146 544.514 626.253 580.784 578.374 603.992C571.917 607.049 565.302 609.967 558.53 612.608C472.538 646.932 373.158 644.292 275.984 626.226C266.377 624.42 256.77 622.474 247.32 620.529C150.146 599.823 58.4834 544.931 -7.34942 465.025" stroke="black" stroke-opacity="0.16" stroke-miterlimit="10"></path><path d="M2157.42 129.003C2129.38 211.966 2061.82 274.084 1981.81 297.708C1963.7 302.989 1944.96 306.602 1925.74 307.992C1867.31 312.161 1805.73 298.264 1747.77 270.749C1716.75 256.018 1686.19 239.342 1653.91 227.252C1645.56 224.056 1637.21 221.277 1628.71 218.914C1580.67 205.296 1533.74 207.241 1493.1 230.726C1452 254.49 1417.51 289.092 1374.04 312.717C1351.2 325.224 1327.42 333.562 1303.32 339.12C1219.38 358.576 1125.83 344.679 1039.36 346.625C993.688 347.458 954.63 356.769 920.611 369.276C878.245 384.702 845.486 406.241 813.829 431.116C807.215 436.258 800.442 441.539 793.827 447.098C770.361 466.275 741.539 485.035 711.458 507.409C668.147 539.788 625.623 575.503 576.957 597.876C570.342 600.934 563.727 603.713 556.798 606.214C469.861 639.15 370.009 634.703 272.677 616.637C263.07 614.83 253.462 612.885 243.855 610.939C146.366 590.372 54.2314 535.758 -12.3889 456.13" stroke="black" stroke-opacity="0.16" stroke-miterlimit="10"></path><path d="M2153.95 100.932C2127.49 184.867 2061.35 248.931 1981.81 274.779C1963.7 280.616 1944.96 284.785 1925.59 286.591C1866.84 292.428 1804.31 279.782 1745.73 252.683C1714.54 238.231 1683.67 221.555 1651.23 209.604C1642.88 206.546 1634.38 203.628 1625.87 201.266C1577.68 187.786 1530.59 189.592 1490.11 213.911C1449.32 238.37 1415.46 273.945 1371.99 297.569C1349 310.076 1325.22 318.414 1300.96 323.695C1216.54 342.317 1122.52 325.78 1035.74 327.447C989.751 328.281 950.85 338.148 916.988 351.905C874.937 368.998 842.651 393.04 811.467 420.416C805.009 426.114 798.395 431.95 791.937 437.787C769.101 458.632 740.909 478.643 711.143 501.573C668.146 534.647 624.678 569.666 575.382 591.345C568.767 594.263 561.837 596.904 555.065 599.405C467.025 630.812 367.016 624.836 269.527 606.492C259.92 604.686 250.312 602.74 240.705 600.795C142.743 580.228 50.294 526.17 -17.2713 446.681" stroke="black" stroke-opacity="0.16" stroke-miterlimit="10"></path><path d="M2150.49 72.8611C2125.6 157.77 2061.03 223.918 1981.97 251.989C1963.86 258.382 1944.96 262.968 1925.59 265.33C1866.37 272.695 1803.05 261.3 1743.99 234.757C1712.5 220.583 1681.47 204.046 1649.02 192.095C1640.68 189.037 1632.17 186.258 1623.67 183.757C1575.32 170.277 1528.07 172.222 1487.75 197.375C1447.12 222.528 1413.88 258.938 1370.42 282.84C1347.42 295.486 1323.48 303.685 1299.07 308.688C1214.18 326.336 1119.53 307.298 1032.59 308.688C986.286 309.382 947.385 319.944 913.839 334.952C871.945 353.713 840.131 380.256 809.734 409.994C803.435 416.248 796.977 422.501 790.678 428.894C768.471 451.406 740.909 472.807 711.3 496.015C668.462 529.784 624.205 564.108 574.28 584.953C567.507 587.733 560.578 590.373 553.648 592.736C464.506 622.752 364.339 614.97 266.535 596.488C256.927 594.681 247.163 592.736 237.556 590.651C139.279 570.223 46.3569 516.443 -21.9959 437.232" stroke="black" stroke-opacity="0.16" stroke-miterlimit="10"></path><path d="M2147.02 44.6504C2123.87 130.532 2060.72 198.764 1981.97 228.92C1963.86 235.869 1944.96 241.01 1925.59 243.929C1866.05 252.823 1801.79 242.817 1742.1 216.83C1710.29 202.933 1679.11 186.535 1646.5 174.584C1638.16 171.527 1629.65 168.748 1620.99 166.385C1572.48 152.905 1525.08 154.99 1484.91 180.838C1444.6 206.825 1411.84 243.929 1368.37 267.97C1345.37 280.755 1321.28 288.815 1296.71 293.54C1211.35 310.355 1116.06 288.676 1028.97 289.788C982.349 290.344 943.447 301.6 910.216 317.859C868.637 338.287 837.138 367.331 807.372 399.571C801.23 406.242 794.93 413.051 788.787 419.999C767.211 444.18 740.121 466.831 710.827 490.595C668.304 525.058 623.26 558.688 572.547 578.838C565.617 581.618 558.687 583.98 551.6 586.204C461.513 614.831 360.874 605.381 262.912 586.62C253.147 584.814 243.54 582.868 233.933 580.784C135.341 560.356 41.9465 506.993 -27.1937 427.921" stroke="black" stroke-opacity="0.16" stroke-miterlimit="10"></path><path d="M2143.56 16.5794C2121.98 103.434 2060.24 173.612 1981.97 206.13C1964.01 213.634 1944.96 219.193 1925.43 222.667C1865.58 233.09 1800.38 224.474 1740.06 198.904C1708.09 185.285 1676.59 168.887 1643.83 156.936C1635.32 153.878 1626.82 151.099 1618.31 148.737C1569.65 135.257 1522.08 137.48 1482.24 164.023C1442.23 190.705 1409.95 228.782 1366.48 252.823C1343.33 265.747 1319.23 273.668 1294.5 278.115C1208.67 293.957 1112.75 269.777 1025.5 270.611C978.569 271.027 939.825 282.84 906.594 300.488C865.33 322.445 834.146 354.13 805.167 388.871C799.182 396.097 793.197 403.324 787.212 410.689C766.423 436.537 739.806 460.439 710.827 484.619C668.461 519.917 622.63 552.713 571.287 572.168C564.357 574.809 557.27 577.171 550.025 579.256C458.836 606.354 358.039 595.237 259.919 576.337C250.155 574.531 240.548 572.585 230.783 570.501C131.719 550.212 38.0091 497.265 -32.0761 418.332" stroke="black" stroke-opacity="0.16" stroke-miterlimit="10"></path><path d="M2140.09 -11.492C2120.09 76.3349 2059.93 148.598 1982.13 183.339C1964.17 191.399 1945.12 197.514 1925.43 201.405C1865.27 213.356 1799.12 206.13 1738.32 180.977C1706.04 167.497 1674.54 151.377 1641.62 139.426C1633.12 136.369 1624.61 133.589 1615.95 131.227C1566.97 117.747 1519.41 119.97 1479.72 147.486C1439.87 174.862 1408.22 213.773 1364.9 238.092C1341.75 251.155 1317.5 258.937 1292.61 263.106C1206.31 277.976 1109.76 251.294 1022.35 251.989C975.104 252.267 936.36 264.774 903.444 283.673C862.338 307.298 831.626 341.483 803.277 378.587C797.45 386.231 791.622 394.013 785.795 401.934C765.636 429.449 739.649 454.741 710.828 479.338C668.776 515.331 622.158 547.571 570.027 566.054C562.94 568.555 555.695 570.778 548.45 572.863C456.158 598.572 355.204 585.787 256.77 566.609C247.005 564.664 237.241 562.718 227.633 560.773C128.254 540.623 34.0721 487.954 -36.8006 409.299" stroke="black" stroke-opacity="0.16" stroke-miterlimit="10"></path><path d="M2136.47 -39.7026C2118.2 48.9582 2059.46 123.444 1981.97 160.271C1964.01 168.886 1944.96 175.418 1925.11 179.865C1864.48 193.484 1797.54 187.508 1736.12 162.772C1703.68 149.57 1671.86 133.589 1638.79 121.638C1630.28 118.581 1621.78 115.801 1613.12 113.439C1563.98 99.959 1516.26 102.321 1476.73 130.532C1437.04 158.603 1406.01 198.347 1362.7 222.806C1339.55 235.868 1315.14 243.651 1290.09 247.542C1203.31 261.577 1106.3 232.255 1018.57 232.672C971.009 232.811 932.423 246.152 899.664 266.302C858.873 291.733 828.476 328.42 800.757 367.887C795.087 376.086 789.26 384.424 783.748 392.762C764.061 421.945 738.862 448.487 710.355 473.501C668.619 510.189 621.055 541.734 568.137 559.522C560.892 561.884 553.648 564.108 546.245 566.053C453.008 590.511 351.581 575.781 253.147 556.604C243.382 554.658 233.618 552.712 224.011 550.767C124.316 530.617 29.6619 478.504 -42.1558 399.988" stroke="black" stroke-opacity="0.16" stroke-miterlimit="10"></path><path d="M2133.01 -67.7736C2116.31 21.86 2059.14 98.4305 1981.97 137.48C1964.01 146.513 1944.96 153.739 1925.11 158.603C1864.16 173.889 1796.28 169.026 1734.23 144.845C1701.47 131.922 1669.5 115.94 1636.27 104.128C1627.76 101.071 1619.1 98.2916 1610.44 95.9292C1561.14 82.4494 1513.26 84.9508 1473.89 113.995C1434.52 142.761 1403.96 183.478 1360.65 208.075C1337.5 221.277 1312.93 228.781 1287.73 232.672C1200.48 245.735 1102.83 213.912 1014.95 214.051C967.072 214.051 928.485 227.948 896.041 249.487C855.565 276.447 825.484 315.774 798.552 357.742C793.04 366.497 787.37 375.252 782.015 384.146C763.116 414.997 738.389 442.929 710.04 468.36C668.619 505.881 620.268 536.593 566.562 553.685C559.317 556.048 551.915 557.993 544.355 559.8C450.016 582.73 348.432 566.47 249.682 547.015C239.918 545.07 230.153 543.124 220.388 541.178C120.379 521.167 25.252 469.333 -47.3531 391.094" stroke="black" stroke-opacity="0.16" stroke-miterlimit="10"></path><path d="M2129.54 -95.8452C2114.58 -5.23891 2058.83 73.2773 1981.97 114.689C1964.01 124.278 1944.96 131.921 1924.96 137.341C1863.69 154.156 1794.86 150.682 1732.34 126.918C1699.27 114.272 1667.14 98.4302 1633.91 86.6181C1625.4 83.5608 1616.74 80.7814 1608.08 78.419C1558.62 65.0782 1510.59 67.5796 1471.37 97.3185C1432.31 126.918 1402.23 168.33 1358.92 193.067C1335.61 206.407 1311.04 213.773 1285.68 217.386C1197.96 229.615 1099.68 195.012 1011.49 195.012C963.292 195.012 924.705 209.465 892.577 232.255C852.415 260.882 822.649 302.711 796.347 347.042C790.835 356.213 785.638 365.524 780.283 374.835C762.013 407.353 737.917 436.536 709.725 462.384C668.461 500.6 619.323 530.617 564.987 546.876C557.585 549.099 550.183 551.045 542.623 552.712C447.181 574.252 345.439 556.186 246.375 536.592C236.61 534.647 226.845 532.701 217.081 530.756C116.599 510.744 21.1572 459.466 -52.393 381.366" stroke="black" stroke-opacity="0.16" stroke-miterlimit="10"></path><path d="M2126.08 -124.054C2112.69 -32.4754 2058.67 48.2642 1982.13 91.6218C1964.33 101.766 1945.12 109.965 1924.96 115.802C1863.38 134.146 1793.61 132.061 1730.45 108.715C1697.22 96.3467 1664.77 80.5045 1631.39 68.8313C1622.88 65.774 1614.22 62.9947 1605.4 60.7712C1555.63 47.4304 1507.75 50.0707 1468.69 80.5044C1429.79 110.799 1400.34 153.045 1357.19 178.059C1333.88 191.539 1309.15 198.765 1283.64 202.1C1195.44 213.357 1096.53 176.253 1008.18 175.975C959.67 175.836 921.083 190.983 889.269 215.024C849.266 245.319 819.972 289.649 794.457 336.481C789.103 346.209 784.063 355.936 778.865 365.803C761.226 399.989 737.602 430.423 709.883 456.826C668.776 495.737 618.851 525.059 563.885 540.623C556.325 542.708 548.765 544.514 541.206 546.182C444.661 566.193 342.605 546.599 243.54 526.727C233.776 524.781 223.853 522.835 214.089 520.89C113.292 501.018 17.3776 450.017 -56.96 372.057" stroke="black" stroke-opacity="0.16" stroke-miterlimit="10"></path><path d="M2122.61 -152.127C2110.8 -59.5747 2058.2 23.1105 1982.13 68.8305C1909.52 112.466 1813.13 121.221 1728.56 90.9261C1686.51 75.7788 1645.87 54.7948 1602.88 43.2606C1552.95 29.9198 1504.92 32.6992 1466.02 63.9667C1427.43 94.9562 1398.45 138.175 1355.3 163.189C1251.19 223.5 1118.9 157.769 1004.71 157.074C882.024 156.38 824.224 257.269 777.133 356.908C731.617 453.073 642.632 519.916 539.315 539.65C432.061 560.078 319.138 532.284 210.624 511.022C109.512 491.15 13.2826 440.566 -61.9999 362.884" stroke="black" stroke-opacity="0.16" stroke-miterlimit="10"></path></svg>