<?xml version="1.0" encoding="UTF-8"?>
<svg xmlns="http://www.w3.org/2000/svg" viewBox="0 0 541.4 93.73" role="img" aria-label="Hamsa Reminder">
  <path fill="#060606" d="M0 58.69V5.87C0 3.32.51 1.7 1.53 1.02 2.64.34 4.47 0 7.02 0h13.91v22.84h28.84V0H70.7v52.06c0 2.64-.43 4.42-1.28 5.36-.85.85-2.81 1.28-5.87 1.28H49.77V33.69H20.93V58.7H0ZM107.52 59.33c-5.95 0-10.76-.21-14.42-.64-3.66-.34-6.51-1.06-8.55-2.17-1.96-1.11-3.28-2.68-3.96-4.72-.68-2.04-1.02-4.68-1.02-7.91 0-4.34.43-7.61 1.28-9.82.85-2.3 2.34-3.87 4.47-4.72 2.13-.85 4.98-1.28 8.55-1.28 2.13 0 4.55.04 7.27.13 2.81 0 5.53.04 8.17.13 2.72.08 5.06.26 7.02.51 2.04.17 3.44.34 4.21.51 0-2.64-.25-4.72-.77-6.25-.43-1.53-1.15-2.68-2.17-3.45-1.02-.85-2.38-1.4-4.08-1.66-1.7-.26-3.79-.38-6.25-.38-2.98 0-5.95.04-8.93.13-2.89.08-5.74.26-8.55.51-2.72.26-5.23.55-7.53.89v-3.57c0-2.3.51-4 1.53-5.1 1.02-1.1 2.42-1.83 4.21-2.17 1.96-.43 4.85-.72 8.68-.89 3.91-.17 8.12-.26 12.63-.26 5.7 0 10.46.3 14.29.89 3.91.59 6.97 1.66 9.19 3.19 2.21 1.53 3.79 3.83 4.72 6.89.94 2.98 1.4 6.97 1.4 11.99V55.5c-1.36 1.28-4.76 2.25-10.21 2.93-5.36.59-12.42.89-21.18.89Zm-.12-7.91c2.38 0 4.38-.04 6-.13 1.7-.17 3.15-.38 4.34-.64s2.13-.55 2.81-.89V35.47c-.94-.25-2.25-.47-3.95-.64-1.62-.17-3.28-.3-4.98-.38-1.7-.09-3.02-.13-3.96-.13-2.04 0-3.7.17-4.98.51-1.28.34-2.21 1.11-2.81 2.3-.51 1.19-.77 3.02-.77 5.49 0 2.13.21 3.87.64 5.23.43 1.28 1.23 2.21 2.43 2.81 1.19.51 2.93.77 5.23.77ZM153.32 58.69c-2.89 0-4.8-.43-5.74-1.28-.85-.85-1.28-2.76-1.28-5.74v-40.7c1.28-.43 2.93-.81 4.98-1.15 2.13-.43 4.42-.81 6.89-1.15 2.47-.34 4.98-.6 7.53-.77 2.64-.26 5.06-.38 7.27-.38 3.4 0 6.34.26 8.8.77 2.47.51 4.55 1.49 6.25 2.93 1.79 1.45 3.27 3.62 4.46 6.51l-2.68-.13c.77-2.21 1.87-4 3.32-5.36a12.75 12.75 0 0 1 5.1-2.93c1.96-.68 3.87-1.15 5.74-1.4 1.87-.26 3.57-.38 5.1-.38 5.87 0 10.51.51 13.91 1.53 3.4.94 5.83 2.72 7.27 5.36 1.53 2.55 2.3 6.17 2.3 10.85v27.05c0 2.81-.51 4.59-1.53 5.36-.93.68-2.72 1.02-5.36 1.02h-12.12V24.62c-.08-3.32-.77-5.49-2.04-6.51-1.19-1.02-3.02-1.53-5.49-1.53-1.19 0-2.34.17-3.44.51-1.02.34-1.87.81-2.55 1.4-.68.6-1.02 1.32-1.02 2.17v38.02h-19.14V23.22c0-2.3-.68-3.91-2.04-4.85-1.28-1.02-3.1-1.53-5.49-1.53-1.36 0-2.55.13-3.57.38-1.02.17-1.83.47-2.43.89-.59.34-.94.89-1.02 1.66v38.92h-12ZM263.89 59.2c-2.04 0-4.21-.04-6.51-.13-2.3-.08-4.59-.26-6.89-.51-2.21-.26-4.25-.64-6.13-1.15-1.53-.34-2.81-.77-3.83-1.28-.94-.59-1.66-1.66-2.17-3.19-.43-1.62-.64-4.13-.64-7.53 2.64.94 5.36 1.7 8.16 2.3 2.81.51 5.53.89 8.17 1.15 2.72.17 5.23.26 7.53.26h5.23c1.96-.08 3.83-.3 5.61-.64 1.79-.43 3.28-1.06 4.47-1.91 1.19-.94 1.79-2.21 1.79-3.83 0-1.96-.51-3.23-1.53-3.83-1.02-.59-2.38-.89-4.08-.89h-14.55c-3.91 0-7.4-.21-10.46-.64-2.98-.43-5.36-1.57-7.15-3.44-1.7-1.96-2.55-5.23-2.55-9.82 0-5.02 1.23-8.72 3.7-11.1 2.55-2.47 6.17-4.08 10.84-4.85 4.68-.77 10.29-1.15 16.84-1.15 2.38 0 5.15.04 8.29.13 3.23.08 6.04.3 8.42.64 2.64.26 4.68.68 6.13 1.28 1.53.51 2.64 1.36 3.32 2.55.68 1.1 1.02 2.85 1.02 5.23v3.57c-.51-.85-1.83-1.49-3.96-1.91-2.04-.51-4.55-.85-7.53-1.02a156.9 156.9 0 0 0-9.19-.25h-8.8c-1.87 0-3.62.13-5.23.38-1.53.17-2.76.68-3.7 1.53-.93.77-1.4 2.04-1.4 3.83 0 1.36.3 2.38.89 3.06.6.6 1.4.98 2.43 1.15 1.02.17 2.17.25 3.44.25h16.2c3.57 0 6.72.34 9.44 1.02 2.72.6 4.81 1.96 6.25 4.08 1.45 2.04 2.17 5.28 2.17 9.7 0 5.1-1.45 8.85-4.34 11.23-2.89 2.38-6.89 3.95-11.99 4.72-5.1.68-11.02 1.02-17.74 1.02ZM329.91 59.33c-5.95 0-10.76-.21-14.42-.64-3.66-.34-6.51-1.06-8.55-2.17-1.96-1.11-3.28-2.68-3.95-4.72-.68-2.04-1.02-4.68-1.02-7.91 0-4.34.43-7.61 1.28-9.82.85-2.3 2.34-3.87 4.47-4.72 2.13-.85 4.98-1.28 8.55-1.28 2.13 0 4.55.04 7.27.13 2.81 0 5.53.04 8.16.13 2.72.08 5.06.26 7.02.51 2.04.17 3.44.34 4.21.51 0-2.64-.26-4.72-.77-6.25-.43-1.53-1.15-2.68-2.17-3.45-1.02-.85-2.38-1.4-4.08-1.66-1.7-.26-3.79-.38-6.25-.38-2.98 0-5.95.04-8.93.13-2.89.08-5.74.26-8.55.51-2.72.26-5.23.55-7.53.89v-3.57c0-2.3.51-4 1.53-5.1 1.02-1.1 2.43-1.83 4.21-2.17 1.96-.43 4.85-.72 8.68-.89 3.91-.17 8.12-.26 12.63-.26 5.7 0 10.46.3 14.29.89 3.91.59 6.98 1.66 9.19 3.19 2.21 1.53 3.79 3.83 4.72 6.89.94 2.98 1.4 6.97 1.4 11.99V55.5c-1.36 1.28-4.76 2.25-10.21 2.93-5.36.59-12.42.89-21.18.89Zm-.13-7.91c2.38 0 4.38-.04 6-.13 1.7-.17 3.15-.38 4.34-.64s2.13-.55 2.81-.89V35.47c-.94-.25-2.26-.47-3.96-.64-1.62-.17-3.28-.3-4.98-.38-1.7-.09-3.02-.13-3.95-.13-2.04 0-3.7.17-4.98.51-1.28.34-2.21 1.11-2.81 2.3-.51 1.19-.77 3.02-.77 5.49 0 2.13.21 3.87.64 5.23.43 1.28 1.23 2.21 2.42 2.81 1.19.51 2.93.77 5.23.77Z"/>
  <path fill="#97DE00" d="M377.26 7.53h148.67c8.54 0 15.48 6.93 15.48 15.48v15.48c0 8.54-6.93 15.48-15.48 15.48H363.84V20.95c0-7.41 6.01-13.42 13.42-13.42ZM400.7 75.3c0-10.18-8.25-18.43-18.43-18.43h-18.43V75.3c0 10.18 8.25 18.43 18.43 18.43s18.43-8.25 18.43-18.43Z"/>
  <text x="451" y="32" text-anchor="middle" dominant-baseline="middle" fill="#060606" font-family="'Baloo 2', Baloo, sans-serif" font-size="24" font-weight="700" font-style="italic" letter-spacing="0.02em">REMINDER</text>
</svg>
